PathFileType	4	(X/Y/Z)	Patient4_TMGait_0pt2_03_right_23.trc.trc
DataRate	CameraRate	NumFrames	NumMarkers	Units	OrigDataRate	OrigDataStartFrame	OrigNumFrames
48.275862068965	48.275862068965	4	33	mm	48.275862068965	89	       141
Frame#	Time	Sacral			L.Shoulder			Chest			R.Shoulder			Neck			R.ASIS			L.ASIS			R.Thigh.Superior			R.Thigh.Lateral			R.Thigh.Inferior			R.Patella			L.Thigh.Superior			L.Thigh.Lateral			L.Thigh.Inferior			L.Patella			L.Shank.Superior			L.Shank.Lateral			L.Shank.Inferior			R.Shank.Superior			R.Shank.Lateral			R.Shank.Inferior			R.Heel			R.Midfoot.Superior			R.Midfoot.Lateral			R.Toe			L.Heel			L.Midfoot.Lateral			L.Midfoot.Superior			L.Toe			L.Elbow			L.Wrist			R.Elbow			R.Wrist			
		X1	Y1	Z1	X2	Y2	Z2	X3	Y3	Z3	X4	Y4	Z4	X5	Y5	Z5	X6	Y6	Z6	X7	Y7	Z7	X8	Y8	Z8	X9	Y9	Z9	X10	Y10	Z10	X11	Y11	Z11	X12	Y12	Z12	X13	Y13	Z13	X14	Y14	Z14	X15	Y15	Z15	X16	Y16	Z16	X17	Y17	Z17	X18	Y18	Z18	X19	Y19	Z19	X20	Y20	Z20	X21	Y21	Z21	X22	Y22	Z22	X23	Y23	Z23	X24	Y24	Z24	X25	Y25	Z25	X26	Y26	Z26	X27	Y27	Z27	X28	Y28	Z28	X29	Y29	Z29	X30	Y30	Z30	X31	Y31	Z31	X32	Y32	Z32	X33	Y33	Z33	

89	50.982857142857	835.998127190250	1015.827757933843	481.529376616335	991.454980151302	1432.073977504458	265.599813163567	1117.760550306474	1364.605455752921	409.197787377923	1067.592465634535	1447.833349887335	589.598559524507	1001.073176603307	1498.540053733369	420.410805530510	1073.003543505723	943.948801578960	571.079110688624	1028.832816079507	961.813535440879	300.557877311445	1077.511336213195	731.331365082961	553.039343833093	987.742184201694	636.027920922019	631.218031302503	1047.690016445503	567.779757551310	550.891234797570	1035.050696750001	475.081314099162	568.349278530345	1089.721523334741	760.560338189949	327.562014172333	1000.670805529414	627.348958320266	268.563450205336	1104.768616715947	568.680126834316	325.969149353027	1110.464116888910	500.758397281158	332.387522515860	1091.462969061902	427.223105148391	323.324697940332	1010.160706546157	305.510497037360	274.905219338552	1078.292179165736	198.634133642409	340.035140915365	981.566326172508	398.913138581361	583.119003700142	887.376674477741	321.979477105184	654.573763292611	903.246917285310	213.749562834268	600.591172793422	732.936865065725	74.268103914052	583.851250974232	909.644101598234	99.166611785543	618.628992472775	814.572129793861	53.050528873875	657.902394280904	1020.518453040386	36.572379718136	648.755312977592	964.331577398477	37.948987569463	382.341762117053	1036.572778813202	35.065828870821	299.899806496076	1118.470515260492	99.384136244798	323.747147563237	1246.826370403764	51.718341828861	293.754536814196	894.290818386679	1093.877373437051	154.468440921560	924.516730156637	834.258133077946	170.250320262026	1250.611602141639	1167.617492538213	708.895639294204	1489.747644777044	1231.371514228503	642.103884016801	
90	51.003571428571	834.402079028329	1017.252519898251	474.946444243121	993.681616439585	1432.920503260965	260.322438925063	1117.825604963208	1365.305784417016	405.674099768363	1065.585792564563	1449.088853349483	585.207105589220	1001.445988993457	1499.641960555295	415.232898793690	1070.325101777510	945.434368282178	567.233466182327	1028.904163289649	962.253527485393	296.297023282667	1077.924112334989	733.464483744826	550.001881060557	989.164453218003	637.453263037774	628.174963349403	1051.131057394517	569.351512944954	548.563381383776	1039.604306672551	475.437258872295	567.086980080382	1087.820967034900	760.196828924800	323.964658828031	997.727389543374	627.540451691635	265.196908308263	1100.927190695678	568.295528842508	323.257773640068	1105.953266020040	500.509051540114	330.003964982199	1087.105332695119	427.097793199506	321.181386289220	1005.862766427661	305.118774484768	273.349454307817	1073.925684738935	198.634542960807	339.246115916093	984.520629101159	400.312817433221	581.863672679882	888.669882741636	325.503892271097	653.427012536920	903.650937956413	216.397985670614	600.547504972796	731.094116664670	79.854871303200	584.297581230781	908.622129376799	100.122235822958	619.510168779945	812.114436348339	56.095853263684	658.169526196361	1017.185712710837	35.695694288113	648.707207089314	960.127555931971	37.909398093158	382.337019156078	1032.308722273282	34.964876459525	299.823031623081	1114.050244696604	99.512397396240	323.445737173030	1242.528639976639	52.022179918512	293.526262521375	905.955438200081	1092.074005059272	147.400727653178	938.203274516761	832.718612098958	162.318254862765	1241.998158114069	1163.566465296663	705.076283302868	1484.509979069433	1218.149851663590	641.896512401550	
91	51.024285714286	832.663055144477	1018.393217872977	468.395664554244	995.854432412983	1433.608092936760	255.249821172943	1117.688951623473	1365.843478121496	402.425950043393	1063.224175261669	1450.137650944357	581.032114155147	1001.601902814157	1500.552714836044	410.251969759503	1067.533535074215	946.814066907545	563.522308204879	1028.958381150911	962.582773956104	292.202189247047	1079.125910780551	735.848134249525	546.866845411454	991.915520284480	638.713525129079	624.929427722932	1056.148264875635	571.110468773434	545.905509769459	1045.934302587879	475.741533774410	565.478713491668	1086.182120414846	759.855555535704	320.622330767734	995.359905452783	627.663199185830	261.884610182506	1097.662418651984	567.945989494882	320.730702448262	1102.109446276344	500.207078932308	327.768178171651	1083.296010319992	426.886246744993	319.180720810437	1002.025845311313	304.747163573842	271.794460786455	1069.787251007749	198.573116984068	338.532035637200	989.008416124540	401.718581678738	580.267306045257	891.348621866557	329.568623261375	652.046920407219	904.833738573133	219.651929800266	600.295307779566	729.633511368761	87.161869368420	584.698771563136	907.787749984725	101.767426644974	620.222401632387	809.763310600916	60.467873752896	658.350130284966	1013.476568513839	34.877665633619	648.449471645079	955.929292980280	37.880818984304	382.325103716783	1028.059327763038	34.874482902990	299.751925618802	1109.664939469882	99.605939895794	323.194267946279	1238.252101528644	52.281287404581	293.329562229836	918.266860541741	1090.213652617925	140.777394004027	953.021914463956	831.194352650134	155.191035907339	1232.036448175329	1158.740412650032	701.450896250716	1477.993209225462	1201.763310664743	642.265572093338	
92	51.045000000000	830.792043594419	1019.115884831962	461.946859841231	997.873724710796	1434.047042130327	250.429784829054	1117.294479868334	1366.140370320424	399.466733258561	1060.475168105068	1450.866054464777	577.108684132487	1001.488976844744	1501.179853043585	405.511303002200	1064.684338653010	947.987667682234	559.947001716484	1028.984431732523	962.738906683595	288.285536828370	1081.220316432488	738.480115429404	543.538855787718	996.223352659130	639.793368348152	621.405830372400	1062.899387285714	573.091027320532	542.789333534882	1054.218336310265	476.026853637227	563.364125762141	1084.942083428326	759.529254286837	317.521050558374	993.783379332866	627.648066163203	258.653595280607	1095.248605141147	567.620125138327	318.402616261664	1099.258857237707	499.819182036125	325.702418928199	1080.298461652016	426.529792926713	317.357684635376	998.848267836374	304.388612432007	270.263230862068	1065.987316902305	198.410635597343	337.917138355592	995.173251890231	403.140030090775	578.202719097162	895.556030887458	334.302653757020	650.313421422324	906.777225159030	223.694020836354	599.715039328005	728.513065665570	96.661808541014	584.964253908508	906.982065476843	104.420157452383	620.641121744512	807.411600018612	66.616895260079	658.357397070176	1009.138712697675	34.270519100716	647.913319005070	951.743593283369	37.864340524616	382.305578220696	1023.834269334617	34.799289878537	299.689363653260	1105.339730950307	99.644665562076	323.016231621054	1234.010797623920	52.461090916079	293.180250374917	930.985923684691	1088.307900497290	134.629939132824	968.978060784742	829.749954862190	148.891615910884	1220.775472554992	1153.176708730331	697.995090135730	1469.890720886421	1182.160858999857	643.107022545547	
